<mxfile host="app.diagrams.net" modified="2024-07-23T14:21:18.297Z" agent="Mozilla/5.0 (Macintosh; Intel Mac OS X 10.15; rv:128.0) Gecko/20100101 Firefox/128.0" etag="24mii9nZWHSh8grA_Nq3" version="24.5.3" type="device">
  <diagram name="Page-1" id="e5kg5PGp0GOZCRDS-3kg">
    <mxGraphModel dx="2679" dy="2164" grid="1" gridSize="10" guides="1" tooltips="1" connect="1" arrows="1" fold="1" page="1" pageScale="1" pageWidth="850" pageHeight="1100" math="0" shadow="0">
      <root>
        <mxCell id="0" />
        <mxCell id="1" parent="0" />
        <mxCell id="WaI7bWhhHGH7RyJGUKFf-75" value="" style="whiteSpace=wrap;html=1;aspect=fixed;" parent="1" vertex="1">
          <mxGeometry x="-160" y="-40" width="1280" height="1280" as="geometry" />
        </mxCell>
        <mxCell id="WaI7bWhhHGH7RyJGUKFf-2" value="" style="rounded=0;whiteSpace=wrap;html=1;" parent="1" vertex="1">
          <mxGeometry x="10" y="20" width="860" height="1040" as="geometry" />
        </mxCell>
        <mxCell id="WaI7bWhhHGH7RyJGUKFf-3" value="VPC" style="sketch=0;outlineConnect=0;gradientColor=none;html=1;whiteSpace=wrap;fontSize=12;fontStyle=0;shape=mxgraph.aws4.group;grIcon=mxgraph.aws4.group_vpc;strokeColor=#879196;fillColor=none;verticalAlign=top;align=left;spacingLeft=30;fontColor=#879196;dashed=0;" parent="1" vertex="1">
          <mxGeometry x="115" y="100" width="620" height="750" as="geometry" />
        </mxCell>
        <mxCell id="WaI7bWhhHGH7RyJGUKFf-4" value="" style="sketch=0;outlineConnect=0;fontColor=#232F3E;gradientColor=none;fillColor=#8C4FFF;strokeColor=none;dashed=0;verticalLabelPosition=bottom;verticalAlign=top;align=center;html=1;fontSize=12;fontStyle=0;aspect=fixed;pointerEvents=1;shape=mxgraph.aws4.nat_gateway;" parent="1" vertex="1">
          <mxGeometry x="386" y="70" width="78" height="78" as="geometry" />
        </mxCell>
        <mxCell id="WaI7bWhhHGH7RyJGUKFf-6" value="Private-1" style="sketch=0;outlineConnect=0;gradientColor=none;html=1;whiteSpace=wrap;fontSize=12;fontStyle=0;shape=mxgraph.aws4.group;grIcon=mxgraph.aws4.group_subnet;strokeColor=#879196;fillColor=none;verticalAlign=top;align=left;spacingLeft=30;fontColor=#879196;dashed=0;" parent="1" vertex="1">
          <mxGeometry x="146" y="160" width="240" height="170" as="geometry" />
        </mxCell>
        <mxCell id="WaI7bWhhHGH7RyJGUKFf-7" value="Private-2" style="sketch=0;outlineConnect=0;gradientColor=none;html=1;whiteSpace=wrap;fontSize=12;fontStyle=0;shape=mxgraph.aws4.group;grIcon=mxgraph.aws4.group_subnet;strokeColor=#879196;fillColor=none;verticalAlign=top;align=left;spacingLeft=30;fontColor=#879196;dashed=0;" parent="1" vertex="1">
          <mxGeometry x="146" y="350" width="240" height="170" as="geometry" />
        </mxCell>
        <mxCell id="WaI7bWhhHGH7RyJGUKFf-8" value="Private-3" style="sketch=0;outlineConnect=0;gradientColor=none;html=1;whiteSpace=wrap;fontSize=12;fontStyle=0;shape=mxgraph.aws4.group;grIcon=mxgraph.aws4.group_subnet;strokeColor=#879196;fillColor=none;verticalAlign=top;align=left;spacingLeft=30;fontColor=#879196;dashed=0;" parent="1" vertex="1">
          <mxGeometry x="146" y="550" width="234" height="150" as="geometry" />
        </mxCell>
        <mxCell id="WaI7bWhhHGH7RyJGUKFf-9" value="Unrouteable" style="sketch=0;outlineConnect=0;gradientColor=none;html=1;whiteSpace=wrap;fontSize=12;fontStyle=0;shape=mxgraph.aws4.group;grIcon=mxgraph.aws4.group_subnet;strokeColor=#879196;fillColor=none;verticalAlign=top;align=left;spacingLeft=30;fontColor=#879196;dashed=0;" parent="1" vertex="1">
          <mxGeometry x="424" y="475" width="290" height="335" as="geometry" />
        </mxCell>
        <mxCell id="WaI7bWhhHGH7RyJGUKFf-10" value="" style="outlineConnect=0;dashed=0;verticalLabelPosition=bottom;verticalAlign=top;align=center;html=1;shape=mxgraph.aws3.ec2;fillColor=#F58534;gradientColor=none;" parent="1" vertex="1">
          <mxGeometry x="234.75" y="210" width="55.25" height="60" as="geometry" />
        </mxCell>
        <mxCell id="WaI7bWhhHGH7RyJGUKFf-11" value="" style="outlineConnect=0;dashed=0;verticalLabelPosition=bottom;verticalAlign=top;align=center;html=1;shape=mxgraph.aws3.ec2;fillColor=#F58534;gradientColor=none;" parent="1" vertex="1">
          <mxGeometry x="236" y="399.5" width="54" height="60.5" as="geometry" />
        </mxCell>
        <mxCell id="WaI7bWhhHGH7RyJGUKFf-12" value="" style="outlineConnect=0;dashed=0;verticalLabelPosition=bottom;verticalAlign=top;align=center;html=1;shape=mxgraph.aws3.ec2;fillColor=#F58534;gradientColor=none;" parent="1" vertex="1">
          <mxGeometry x="237.75" y="594.5" width="56.5" height="61" as="geometry" />
        </mxCell>
        <mxCell id="WaI7bWhhHGH7RyJGUKFf-13" value="" style="sketch=0;points=[[0,0,0],[0.25,0,0],[0.5,0,0],[0.75,0,0],[1,0,0],[0,1,0],[0.25,1,0],[0.5,1,0],[0.75,1,0],[1,1,0],[0,0.25,0],[0,0.5,0],[0,0.75,0],[1,0.25,0],[1,0.5,0],[1,0.75,0]];outlineConnect=0;fontColor=#232F3E;fillColor=#ED7100;strokeColor=#ffffff;dashed=0;verticalLabelPosition=bottom;verticalAlign=top;align=center;html=1;fontSize=12;fontStyle=0;aspect=fixed;shape=mxgraph.aws4.resourceIcon;resIcon=mxgraph.aws4.eks;" parent="1" vertex="1">
          <mxGeometry x="530" y="300" width="78" height="78" as="geometry" />
        </mxCell>
        <mxCell id="WaI7bWhhHGH7RyJGUKFf-14" value="" style="edgeStyle=orthogonalEdgeStyle;html=1;endArrow=none;elbow=vertical;startArrow=block;startFill=1;strokeColor=#545B64;rounded=0;" parent="1" source="WaI7bWhhHGH7RyJGUKFf-4" target="WaI7bWhhHGH7RyJGUKFf-13" edge="1">
          <mxGeometry width="100" relative="1" as="geometry">
            <mxPoint x="470" y="260" as="sourcePoint" />
            <mxPoint x="570" y="260" as="targetPoint" />
            <Array as="points">
              <mxPoint x="425" y="260" />
              <mxPoint x="569" y="260" />
            </Array>
          </mxGeometry>
        </mxCell>
        <mxCell id="WaI7bWhhHGH7RyJGUKFf-15" value="" style="edgeStyle=orthogonalEdgeStyle;html=1;endArrow=none;elbow=vertical;startArrow=block;startFill=1;strokeColor=#545B64;rounded=0;" parent="1" source="WaI7bWhhHGH7RyJGUKFf-10" target="WaI7bWhhHGH7RyJGUKFf-13" edge="1">
          <mxGeometry width="100" relative="1" as="geometry">
            <mxPoint x="400" y="350" as="sourcePoint" />
            <mxPoint x="500" y="350" as="targetPoint" />
            <Array as="points">
              <mxPoint x="550" y="240" />
            </Array>
          </mxGeometry>
        </mxCell>
        <mxCell id="WaI7bWhhHGH7RyJGUKFf-16" value="" style="edgeStyle=orthogonalEdgeStyle;html=1;endArrow=none;elbow=vertical;startArrow=block;startFill=1;strokeColor=#545B64;rounded=0;" parent="1" source="WaI7bWhhHGH7RyJGUKFf-11" target="WaI7bWhhHGH7RyJGUKFf-13" edge="1">
          <mxGeometry width="100" relative="1" as="geometry">
            <mxPoint x="400" y="380" as="sourcePoint" />
            <mxPoint x="500" y="380" as="targetPoint" />
          </mxGeometry>
        </mxCell>
        <mxCell id="WaI7bWhhHGH7RyJGUKFf-17" value="" style="edgeStyle=orthogonalEdgeStyle;html=1;endArrow=none;elbow=vertical;startArrow=block;startFill=1;strokeColor=#545B64;rounded=0;entryX=0;entryY=0.5;entryDx=0;entryDy=0;entryPerimeter=0;" parent="1" source="WaI7bWhhHGH7RyJGUKFf-12" target="WaI7bWhhHGH7RyJGUKFf-13" edge="1">
          <mxGeometry width="100" relative="1" as="geometry">
            <mxPoint x="420" y="400" as="sourcePoint" />
            <mxPoint x="520" y="400" as="targetPoint" />
            <Array as="points">
              <mxPoint x="266" y="530" />
              <mxPoint x="420" y="530" />
              <mxPoint x="420" y="339" />
            </Array>
          </mxGeometry>
        </mxCell>
        <mxCell id="WaI7bWhhHGH7RyJGUKFf-19" value="&lt;div&gt;&lt;br&gt;&lt;/div&gt;&lt;div&gt;&lt;br&gt;&lt;/div&gt;" style="edgeLabel;html=1;align=center;verticalAlign=middle;resizable=0;points=[];" parent="WaI7bWhhHGH7RyJGUKFf-17" vertex="1" connectable="0">
          <mxGeometry x="0.8883" y="-1" relative="1" as="geometry">
            <mxPoint as="offset" />
          </mxGeometry>
        </mxCell>
        <mxCell id="WaI7bWhhHGH7RyJGUKFf-20" value="" style="sketch=0;outlineConnect=0;fontColor=#232F3E;gradientColor=none;fillColor=#ED7100;strokeColor=none;dashed=0;verticalLabelPosition=bottom;verticalAlign=top;align=center;html=1;fontSize=12;fontStyle=0;aspect=fixed;pointerEvents=1;shape=mxgraph.aws4.container_2;" parent="1" vertex="1">
          <mxGeometry x="515.83" y="570" width="46.45" height="30" as="geometry" />
        </mxCell>
        <mxCell id="WaI7bWhhHGH7RyJGUKFf-21" value="" style="sketch=0;outlineConnect=0;fontColor=#232F3E;gradientColor=none;fillColor=#ED7100;strokeColor=none;dashed=0;verticalLabelPosition=bottom;verticalAlign=top;align=center;html=1;fontSize=12;fontStyle=0;aspect=fixed;pointerEvents=1;shape=mxgraph.aws4.container_2;" parent="1" vertex="1">
          <mxGeometry x="640.28" y="570" width="46.45" height="30" as="geometry" />
        </mxCell>
        <mxCell id="WaI7bWhhHGH7RyJGUKFf-22" value="" style="sketch=0;outlineConnect=0;fontColor=#232F3E;gradientColor=none;fillColor=#ED7100;strokeColor=none;dashed=0;verticalLabelPosition=bottom;verticalAlign=top;align=center;html=1;fontSize=12;fontStyle=0;aspect=fixed;pointerEvents=1;shape=mxgraph.aws4.container_2;" parent="1" vertex="1">
          <mxGeometry x="515.83" y="625.5" width="46.45" height="30" as="geometry" />
        </mxCell>
        <mxCell id="WaI7bWhhHGH7RyJGUKFf-23" value="" style="sketch=0;outlineConnect=0;fontColor=#232F3E;gradientColor=none;fillColor=#ED7100;strokeColor=none;dashed=0;verticalLabelPosition=bottom;verticalAlign=top;align=center;html=1;fontSize=12;fontStyle=0;aspect=fixed;pointerEvents=1;shape=mxgraph.aws4.container_2;" parent="1" vertex="1">
          <mxGeometry x="640.28" y="625.5" width="46.45" height="30" as="geometry" />
        </mxCell>
        <mxCell id="WaI7bWhhHGH7RyJGUKFf-24" value="" style="sketch=0;outlineConnect=0;fontColor=#232F3E;gradientColor=none;fillColor=#ED7100;strokeColor=none;dashed=0;verticalLabelPosition=bottom;verticalAlign=top;align=center;html=1;fontSize=12;fontStyle=0;aspect=fixed;pointerEvents=1;shape=mxgraph.aws4.container_2;" parent="1" vertex="1">
          <mxGeometry x="515.83" y="690" width="46.45" height="30" as="geometry" />
        </mxCell>
        <mxCell id="WaI7bWhhHGH7RyJGUKFf-25" value="" style="sketch=0;outlineConnect=0;fontColor=#232F3E;gradientColor=none;fillColor=#ED7100;strokeColor=none;dashed=0;verticalLabelPosition=bottom;verticalAlign=top;align=center;html=1;fontSize=12;fontStyle=0;aspect=fixed;pointerEvents=1;shape=mxgraph.aws4.container_2;" parent="1" vertex="1">
          <mxGeometry x="640.28" y="690" width="46.45" height="30" as="geometry" />
        </mxCell>
        <mxCell id="WaI7bWhhHGH7RyJGUKFf-26" value="" style="sketch=0;outlineConnect=0;fontColor=#232F3E;gradientColor=none;fillColor=#ED7100;strokeColor=none;dashed=0;verticalLabelPosition=bottom;verticalAlign=top;align=center;html=1;fontSize=12;fontStyle=0;aspect=fixed;pointerEvents=1;shape=mxgraph.aws4.container_2;" parent="1" vertex="1">
          <mxGeometry x="640.28" y="750" width="46.45" height="30" as="geometry" />
        </mxCell>
        <mxCell id="WaI7bWhhHGH7RyJGUKFf-27" value="" style="sketch=0;outlineConnect=0;fontColor=#232F3E;gradientColor=none;fillColor=#ED7100;strokeColor=none;dashed=0;verticalLabelPosition=bottom;verticalAlign=top;align=center;html=1;fontSize=12;fontStyle=0;aspect=fixed;pointerEvents=1;shape=mxgraph.aws4.container_2;" parent="1" vertex="1">
          <mxGeometry x="515.83" y="750" width="46.45" height="30" as="geometry" />
        </mxCell>
        <mxCell id="WaI7bWhhHGH7RyJGUKFf-28" value="" style="sketch=0;outlineConnect=0;fontColor=#232F3E;gradientColor=none;fillColor=#7AA116;strokeColor=none;dashed=0;verticalLabelPosition=bottom;verticalAlign=top;align=center;html=1;fontSize=12;fontStyle=0;aspect=fixed;pointerEvents=1;shape=mxgraph.aws4.bucket;" parent="1" vertex="1">
          <mxGeometry x="750" y="972.4" width="60" height="62.4" as="geometry" />
        </mxCell>
        <mxCell id="WaI7bWhhHGH7RyJGUKFf-29" value="" style="sketch=0;outlineConnect=0;fontColor=#232F3E;gradientColor=none;fillColor=#7AA116;strokeColor=none;dashed=0;verticalLabelPosition=bottom;verticalAlign=top;align=center;html=1;fontSize=12;fontStyle=0;aspect=fixed;pointerEvents=1;shape=mxgraph.aws4.bucket;" parent="1" vertex="1">
          <mxGeometry x="750" y="880" width="60" height="62.4" as="geometry" />
        </mxCell>
        <mxCell id="WaI7bWhhHGH7RyJGUKFf-30" value="&lt;div&gt;Logs&lt;/div&gt;" style="text;html=1;align=center;verticalAlign=middle;whiteSpace=wrap;rounded=0;" parent="1" vertex="1">
          <mxGeometry x="750" y="912.4" width="60" height="30" as="geometry" />
        </mxCell>
        <mxCell id="WaI7bWhhHGH7RyJGUKFf-31" value="&lt;div&gt;Main&lt;/div&gt;" style="text;html=1;align=center;verticalAlign=middle;whiteSpace=wrap;rounded=0;" parent="1" vertex="1">
          <mxGeometry x="750" y="1004.8" width="60" height="30" as="geometry" />
        </mxCell>
        <mxCell id="WaI7bWhhHGH7RyJGUKFf-33" value="" style="sketch=0;outlineConnect=0;fontColor=#232F3E;gradientColor=none;fillColor=#DD344C;strokeColor=none;dashed=0;verticalLabelPosition=bottom;verticalAlign=top;align=center;html=1;fontSize=12;fontStyle=0;aspect=fixed;pointerEvents=1;shape=mxgraph.aws4.role;" parent="1" vertex="1">
          <mxGeometry x="60" y="889" width="54.95" height="31" as="geometry" />
        </mxCell>
        <mxCell id="WaI7bWhhHGH7RyJGUKFf-34" value="" style="sketch=0;outlineConnect=0;fontColor=#232F3E;gradientColor=none;fillColor=#DD344C;strokeColor=none;dashed=0;verticalLabelPosition=bottom;verticalAlign=top;align=center;html=1;fontSize=12;fontStyle=0;aspect=fixed;pointerEvents=1;shape=mxgraph.aws4.role;" parent="1" vertex="1">
          <mxGeometry x="60.05" y="950" width="54.95" height="31" as="geometry" />
        </mxCell>
        <mxCell id="WaI7bWhhHGH7RyJGUKFf-35" value="" style="sketch=0;outlineConnect=0;fontColor=#232F3E;gradientColor=none;fillColor=#DD344C;strokeColor=none;dashed=0;verticalLabelPosition=bottom;verticalAlign=top;align=center;html=1;fontSize=12;fontStyle=0;aspect=fixed;pointerEvents=1;shape=mxgraph.aws4.role;" parent="1" vertex="1">
          <mxGeometry x="190" y="889" width="54.95" height="31" as="geometry" />
        </mxCell>
        <mxCell id="WaI7bWhhHGH7RyJGUKFf-36" value="" style="sketch=0;outlineConnect=0;fontColor=#232F3E;gradientColor=none;fillColor=#DD344C;strokeColor=none;dashed=0;verticalLabelPosition=bottom;verticalAlign=top;align=center;html=1;fontSize=12;fontStyle=0;aspect=fixed;pointerEvents=1;shape=mxgraph.aws4.role;" parent="1" vertex="1">
          <mxGeometry x="190" y="950" width="54.95" height="31" as="geometry" />
        </mxCell>
        <mxCell id="WaI7bWhhHGH7RyJGUKFf-37" value="" style="sketch=0;outlineConnect=0;fontColor=#232F3E;gradientColor=none;fillColor=#DD344C;strokeColor=none;dashed=0;verticalLabelPosition=bottom;verticalAlign=top;align=center;html=1;fontSize=12;fontStyle=0;aspect=fixed;pointerEvents=1;shape=mxgraph.aws4.role;" parent="1" vertex="1">
          <mxGeometry x="325.05" y="889" width="54.95" height="31" as="geometry" />
        </mxCell>
        <mxCell id="WaI7bWhhHGH7RyJGUKFf-38" value="" style="sketch=0;outlineConnect=0;fontColor=#232F3E;gradientColor=none;fillColor=#DD344C;strokeColor=none;dashed=0;verticalLabelPosition=bottom;verticalAlign=top;align=center;html=1;fontSize=12;fontStyle=0;aspect=fixed;pointerEvents=1;shape=mxgraph.aws4.role;" parent="1" vertex="1">
          <mxGeometry x="325.05" y="950" width="54.95" height="31" as="geometry" />
        </mxCell>
        <mxCell id="WaI7bWhhHGH7RyJGUKFf-39" value="" style="sketch=0;outlineConnect=0;fontColor=#232F3E;gradientColor=none;fillColor=#DD344C;strokeColor=none;dashed=0;verticalLabelPosition=bottom;verticalAlign=top;align=center;html=1;fontSize=12;fontStyle=0;aspect=fixed;pointerEvents=1;shape=mxgraph.aws4.role;" parent="1" vertex="1">
          <mxGeometry x="752.53" y="680" width="54.95" height="31" as="geometry" />
        </mxCell>
        <mxCell id="WaI7bWhhHGH7RyJGUKFf-41" style="edgeStyle=orthogonalEdgeStyle;rounded=0;orthogonalLoop=1;jettySize=auto;html=1;" parent="1" source="WaI7bWhhHGH7RyJGUKFf-40" target="WaI7bWhhHGH7RyJGUKFf-39" edge="1">
          <mxGeometry relative="1" as="geometry" />
        </mxCell>
        <mxCell id="WaI7bWhhHGH7RyJGUKFf-40" value="" style="aspect=fixed;sketch=0;html=1;dashed=0;whitespace=wrap;verticalLabelPosition=bottom;verticalAlign=top;fillColor=#2875E2;strokeColor=#ffffff;points=[[0.005,0.63,0],[0.1,0.2,0],[0.9,0.2,0],[0.5,0,0],[0.995,0.63,0],[0.72,0.99,0],[0.5,1,0],[0.28,0.99,0]];shape=mxgraph.kubernetes.icon2;prIcon=user" parent="1" vertex="1">
          <mxGeometry x="755" y="315" width="50" height="48" as="geometry" />
        </mxCell>
        <mxCell id="WaI7bWhhHGH7RyJGUKFf-42" value="&lt;div&gt;EKS Admin&lt;/div&gt;" style="text;html=1;align=center;verticalAlign=middle;whiteSpace=wrap;rounded=0;" parent="1" vertex="1">
          <mxGeometry x="750" y="285" width="60" height="30" as="geometry" />
        </mxCell>
        <mxCell id="WaI7bWhhHGH7RyJGUKFf-43" value="EKS Admin Role" style="text;html=1;align=center;verticalAlign=middle;whiteSpace=wrap;rounded=0;" parent="1" vertex="1">
          <mxGeometry x="750" y="720" width="60" height="30" as="geometry" />
        </mxCell>
        <mxCell id="WaI7bWhhHGH7RyJGUKFf-44" value="Pod Identity Agent" style="text;html=1;align=center;verticalAlign=middle;whiteSpace=wrap;rounded=0;" parent="1" vertex="1">
          <mxGeometry x="42.529999999999994" y="924.5" width="90" height="21" as="geometry" />
        </mxCell>
        <mxCell id="WaI7bWhhHGH7RyJGUKFf-45" value="Karpenter" style="text;html=1;align=center;verticalAlign=middle;whiteSpace=wrap;rounded=0;" parent="1" vertex="1">
          <mxGeometry x="60" y="989" width="60" height="30" as="geometry" />
        </mxCell>
        <mxCell id="WaI7bWhhHGH7RyJGUKFf-46" value="EBS CSI Driver" style="text;html=1;align=center;verticalAlign=middle;whiteSpace=wrap;rounded=0;" parent="1" vertex="1">
          <mxGeometry x="187.47" y="920" width="60" height="30" as="geometry" />
        </mxCell>
        <mxCell id="WaI7bWhhHGH7RyJGUKFf-47" value="EFS CSI Driver" style="text;html=1;align=center;verticalAlign=middle;whiteSpace=wrap;rounded=0;" parent="1" vertex="1">
          <mxGeometry x="187.47" y="981" width="60" height="30" as="geometry" />
        </mxCell>
        <mxCell id="WaI7bWhhHGH7RyJGUKFf-48" value="LB Controller" style="text;html=1;align=center;verticalAlign=middle;whiteSpace=wrap;rounded=0;" parent="1" vertex="1">
          <mxGeometry x="322.52" y="916.9" width="60" height="30" as="geometry" />
        </mxCell>
        <mxCell id="WaI7bWhhHGH7RyJGUKFf-49" value="Fluentbit" style="text;html=1;align=center;verticalAlign=middle;whiteSpace=wrap;rounded=0;" parent="1" vertex="1">
          <mxGeometry x="322.52" y="981" width="60" height="30" as="geometry" />
        </mxCell>
        <mxCell id="WaI7bWhhHGH7RyJGUKFf-50" value="" style="outlineConnect=0;dashed=0;verticalLabelPosition=bottom;verticalAlign=top;align=center;html=1;shape=mxgraph.aws3.cloudwatch;fillColor=#759C3E;gradientColor=none;" parent="1" vertex="1">
          <mxGeometry x="630" y="885.9" width="52.5" height="61" as="geometry" />
        </mxCell>
        <mxCell id="WaI7bWhhHGH7RyJGUKFf-51" value="Cloudwatch" style="text;html=1;align=center;verticalAlign=middle;whiteSpace=wrap;rounded=0;" parent="1" vertex="1">
          <mxGeometry x="626.25" y="946.9" width="60" height="30" as="geometry" />
        </mxCell>
        <mxCell id="WaI7bWhhHGH7RyJGUKFf-52" value="AWS" style="text;html=1;align=center;verticalAlign=middle;whiteSpace=wrap;rounded=0;" parent="1" vertex="1">
          <mxGeometry y="20" width="67.53" height="20" as="geometry" />
        </mxCell>
        <mxCell id="WaI7bWhhHGH7RyJGUKFf-53" value="Fluentbit" style="text;html=1;align=center;verticalAlign=middle;whiteSpace=wrap;rounded=0;" parent="1" vertex="1">
          <mxGeometry x="509.28000000000003" y="596" width="60" height="30" as="geometry" />
        </mxCell>
        <mxCell id="WaI7bWhhHGH7RyJGUKFf-54" value="Karpenter" style="text;html=1;align=center;verticalAlign=middle;whiteSpace=wrap;rounded=0;" parent="1" vertex="1">
          <mxGeometry x="633.5" y="596" width="60" height="30" as="geometry" />
        </mxCell>
        <mxCell id="WaI7bWhhHGH7RyJGUKFf-55" value="LB Controller" style="text;html=1;align=center;verticalAlign=middle;whiteSpace=wrap;rounded=0;" parent="1" vertex="1">
          <mxGeometry x="502.56" y="655.5" width="73" height="24.5" as="geometry" />
        </mxCell>
        <mxCell id="WaI7bWhhHGH7RyJGUKFf-56" value="EBS CSI Driver" style="text;html=1;align=center;verticalAlign=middle;whiteSpace=wrap;rounded=0;" parent="1" vertex="1">
          <mxGeometry x="615.86" y="655.5" width="95.28" height="24.5" as="geometry" />
        </mxCell>
        <mxCell id="WaI7bWhhHGH7RyJGUKFf-57" value="EFS CSI Driver" style="text;html=1;align=center;verticalAlign=middle;whiteSpace=wrap;rounded=0;" parent="1" vertex="1">
          <mxGeometry x="615.86" y="720" width="95.28" height="24.5" as="geometry" />
        </mxCell>
        <mxCell id="WaI7bWhhHGH7RyJGUKFf-58" value="Pod Identiy Agent" style="text;html=1;align=center;verticalAlign=middle;whiteSpace=wrap;rounded=0;" parent="1" vertex="1">
          <mxGeometry x="488.85" y="722.25" width="100.86" height="20" as="geometry" />
        </mxCell>
        <mxCell id="WaI7bWhhHGH7RyJGUKFf-59" value="CoreDNS" style="text;html=1;align=center;verticalAlign=middle;whiteSpace=wrap;rounded=0;" parent="1" vertex="1">
          <mxGeometry x="509.06" y="788.5" width="60" height="21.5" as="geometry" />
        </mxCell>
        <mxCell id="WaI7bWhhHGH7RyJGUKFf-60" value="Kube Proxy" style="text;html=1;align=center;verticalAlign=middle;whiteSpace=wrap;rounded=0;" parent="1" vertex="1">
          <mxGeometry x="629.11" y="780" width="68.77" height="30" as="geometry" />
        </mxCell>
        <mxCell id="WaI7bWhhHGH7RyJGUKFf-62" value="" style="edgeStyle=orthogonalEdgeStyle;html=1;endArrow=none;elbow=vertical;startArrow=block;startFill=1;strokeColor=#545B64;rounded=0;entryX=0;entryY=0.25;entryDx=0;entryDy=0;" parent="1" source="WaI7bWhhHGH7RyJGUKFf-50" target="WaI7bWhhHGH7RyJGUKFf-30" edge="1">
          <mxGeometry width="100" relative="1" as="geometry">
            <mxPoint x="640" y="1010" as="sourcePoint" />
            <mxPoint x="740" y="1010" as="targetPoint" />
          </mxGeometry>
        </mxCell>
        <mxCell id="WaI7bWhhHGH7RyJGUKFf-64" value="" style="image;html=1;image=img/lib/clip_art/computers/Database_128x128.png" parent="1" vertex="1">
          <mxGeometry x="950" y="550" width="80" height="80" as="geometry" />
        </mxCell>
        <mxCell id="WaI7bWhhHGH7RyJGUKFf-65" value="" style="edgeStyle=orthogonalEdgeStyle;html=1;endArrow=none;elbow=vertical;startArrow=block;startFill=1;strokeColor=#545B64;rounded=0;entryX=1;entryY=0.5;entryDx=0;entryDy=0;" parent="1" source="WaI7bWhhHGH7RyJGUKFf-64" target="WaI7bWhhHGH7RyJGUKFf-30" edge="1">
          <mxGeometry width="100" relative="1" as="geometry">
            <mxPoint x="620" y="1020" as="sourcePoint" />
            <mxPoint x="720" y="1020" as="targetPoint" />
            <Array as="points">
              <mxPoint x="990" y="927" />
            </Array>
          </mxGeometry>
        </mxCell>
        <mxCell id="WaI7bWhhHGH7RyJGUKFf-66" value="Splunk" style="text;html=1;align=center;verticalAlign=middle;whiteSpace=wrap;rounded=0;" parent="1" vertex="1">
          <mxGeometry x="960" y="520" width="60" height="30" as="geometry" />
        </mxCell>
        <mxCell id="WaI7bWhhHGH7RyJGUKFf-68" value="" style="outlineConnect=0;dashed=0;verticalLabelPosition=bottom;verticalAlign=top;align=center;html=1;shape=mxgraph.aws3.kms;fillColor=#759C3E;gradientColor=none;" parent="1" vertex="1">
          <mxGeometry x="30" y="640" width="60" height="71" as="geometry" />
        </mxCell>
        <mxCell id="WaI7bWhhHGH7RyJGUKFf-69" value="KMS" style="text;html=1;align=center;verticalAlign=middle;whiteSpace=wrap;rounded=0;" parent="1" vertex="1">
          <mxGeometry x="30" y="720" width="60" height="30" as="geometry" />
        </mxCell>
        <mxCell id="WaI7bWhhHGH7RyJGUKFf-70" value="EKS Managed Node" style="text;html=1;align=center;verticalAlign=middle;whiteSpace=wrap;rounded=0;" parent="1" vertex="1">
          <mxGeometry x="205.44" y="270" width="121.12" height="30" as="geometry" />
        </mxCell>
        <mxCell id="WaI7bWhhHGH7RyJGUKFf-73" value="EKS" style="text;html=1;align=center;verticalAlign=middle;whiteSpace=wrap;rounded=0;" parent="1" vertex="1">
          <mxGeometry x="594" y="324" width="60" height="30" as="geometry" />
        </mxCell>
        <mxCell id="WaI7bWhhHGH7RyJGUKFf-74" value="NGW" style="text;html=1;align=center;verticalAlign=middle;whiteSpace=wrap;rounded=0;" parent="1" vertex="1">
          <mxGeometry x="395" y="40" width="60" height="30" as="geometry" />
        </mxCell>
        <mxCell id="WaI7bWhhHGH7RyJGUKFf-76" value="Auth Boundry" style="text;html=1;align=center;verticalAlign=middle;whiteSpace=wrap;rounded=0;" parent="1" vertex="1">
          <mxGeometry x="-160" y="-40" width="80" height="30" as="geometry" />
        </mxCell>
        <mxCell id="WaI7bWhhHGH7RyJGUKFf-77" value="EKS Managed Node" style="text;html=1;align=center;verticalAlign=middle;whiteSpace=wrap;rounded=0;" parent="1" vertex="1">
          <mxGeometry x="202.44" y="460" width="121.12" height="30" as="geometry" />
        </mxCell>
        <mxCell id="WaI7bWhhHGH7RyJGUKFf-78" value="EKS Managed Node" style="text;html=1;align=center;verticalAlign=middle;whiteSpace=wrap;rounded=0;" parent="1" vertex="1">
          <mxGeometry x="205.44" y="650" width="121.12" height="30" as="geometry" />
        </mxCell>
        <mxCell id="WaI7bWhhHGH7RyJGUKFf-79" value="" style="outlineConnect=0;dashed=0;verticalLabelPosition=bottom;verticalAlign=top;align=center;html=1;shape=mxgraph.aws3.ami;fillColor=#F58534;gradientColor=none;" parent="1" vertex="1">
          <mxGeometry x="30" y="398.25" width="60" height="63" as="geometry" />
        </mxCell>
        <mxCell id="WaI7bWhhHGH7RyJGUKFf-80" value="Gold Image AMI" style="text;html=1;align=center;verticalAlign=middle;whiteSpace=wrap;rounded=0;" parent="1" vertex="1">
          <mxGeometry x="30" y="466.5" width="60" height="30" as="geometry" />
        </mxCell>
        <mxCell id="WaI7bWhhHGH7RyJGUKFf-81" value="" style="edgeStyle=orthogonalEdgeStyle;html=1;endArrow=none;elbow=vertical;startArrow=block;startFill=1;strokeColor=#545B64;rounded=0;entryX=0;entryY=0.5;entryDx=0;entryDy=0;entryPerimeter=0;exitX=1;exitY=0.5;exitDx=0;exitDy=0;exitPerimeter=0;" parent="1" source="WaI7bWhhHGH7RyJGUKFf-79" target="WaI7bWhhHGH7RyJGUKFf-10" edge="1">
          <mxGeometry width="100" relative="1" as="geometry">
            <mxPoint x="120" y="240" as="sourcePoint" />
            <mxPoint x="220" y="240" as="targetPoint" />
            <Array as="points">
              <mxPoint x="160" y="430" />
              <mxPoint x="160" y="240" />
            </Array>
          </mxGeometry>
        </mxCell>
        <mxCell id="WaI7bWhhHGH7RyJGUKFf-82" value="" style="edgeStyle=orthogonalEdgeStyle;html=1;endArrow=none;elbow=vertical;startArrow=block;startFill=1;strokeColor=#545B64;rounded=0;entryX=0;entryY=0.5;entryDx=0;entryDy=0;entryPerimeter=0;exitX=1;exitY=0.5;exitDx=0;exitDy=0;exitPerimeter=0;" parent="1" source="WaI7bWhhHGH7RyJGUKFf-79" target="WaI7bWhhHGH7RyJGUKFf-11" edge="1">
          <mxGeometry width="100" relative="1" as="geometry">
            <mxPoint x="130" y="450" as="sourcePoint" />
            <mxPoint x="230" y="450" as="targetPoint" />
          </mxGeometry>
        </mxCell>
        <mxCell id="WaI7bWhhHGH7RyJGUKFf-83" value="" style="edgeStyle=orthogonalEdgeStyle;html=1;endArrow=none;elbow=vertical;startArrow=block;startFill=1;strokeColor=#545B64;rounded=0;exitX=0;exitY=0.5;exitDx=0;exitDy=0;exitPerimeter=0;entryX=1;entryY=0.5;entryDx=0;entryDy=0;entryPerimeter=0;" parent="1" source="WaI7bWhhHGH7RyJGUKFf-12" target="WaI7bWhhHGH7RyJGUKFf-79" edge="1">
          <mxGeometry width="100" relative="1" as="geometry">
            <mxPoint x="46" y="625" as="sourcePoint" />
            <mxPoint x="46" y="625" as="targetPoint" />
            <Array as="points">
              <mxPoint x="160" y="625" />
              <mxPoint x="160" y="430" />
            </Array>
          </mxGeometry>
        </mxCell>
        <mxCell id="WaI7bWhhHGH7RyJGUKFf-84" value="" style="edgeStyle=orthogonalEdgeStyle;html=1;endArrow=none;elbow=vertical;startArrow=block;startFill=1;strokeColor=#545B64;rounded=0;exitX=0.1;exitY=0.5;exitDx=0;exitDy=0;exitPerimeter=0;" parent="1" source="WaI7bWhhHGH7RyJGUKFf-50" target="WaI7bWhhHGH7RyJGUKFf-20" edge="1">
          <mxGeometry width="100" relative="1" as="geometry">
            <mxPoint x="490" y="900" as="sourcePoint" />
            <mxPoint x="590" y="900" as="targetPoint" />
            <Array as="points">
              <mxPoint x="420" y="916" />
              <mxPoint x="420" y="585" />
            </Array>
          </mxGeometry>
        </mxCell>
        <mxCell id="WaI7bWhhHGH7RyJGUKFf-85" value="" style="sketch=0;outlineConnect=0;fontColor=#232F3E;gradientColor=none;fillColor=#ED7100;strokeColor=none;dashed=0;verticalLabelPosition=bottom;verticalAlign=top;align=center;html=1;fontSize=12;fontStyle=0;aspect=fixed;pointerEvents=1;shape=mxgraph.aws4.container_2;" parent="1" vertex="1">
          <mxGeometry x="640.2700000000001" y="505" width="46.45" height="30" as="geometry" />
        </mxCell>
        <mxCell id="WaI7bWhhHGH7RyJGUKFf-86" value="Container Insights" style="text;html=1;align=center;verticalAlign=middle;whiteSpace=wrap;rounded=0;" parent="1" vertex="1">
          <mxGeometry x="613" y="533" width="101" height="35" as="geometry" />
        </mxCell>
        <mxCell id="WaI7bWhhHGH7RyJGUKFf-87" value="" style="edgeStyle=orthogonalEdgeStyle;html=1;endArrow=none;elbow=vertical;startArrow=block;startFill=1;strokeColor=#545B64;rounded=0;exitX=0.35;exitY=0;exitDx=0;exitDy=0;exitPerimeter=0;" parent="1" source="WaI7bWhhHGH7RyJGUKFf-50" target="WaI7bWhhHGH7RyJGUKFf-85" edge="1">
          <mxGeometry width="100" relative="1" as="geometry">
            <mxPoint x="500" y="970" as="sourcePoint" />
            <mxPoint x="600" y="970" as="targetPoint" />
            <Array as="points">
              <mxPoint x="648" y="870" />
              <mxPoint x="680" y="870" />
              <mxPoint x="680" y="525" />
            </Array>
          </mxGeometry>
        </mxCell>
        <mxCell id="WaI7bWhhHGH7RyJGUKFf-88" value="" style="sketch=0;outlineConnect=0;fontColor=#232F3E;gradientColor=none;fillColor=#ED7100;strokeColor=none;dashed=0;verticalLabelPosition=bottom;verticalAlign=top;align=center;html=1;fontSize=12;fontStyle=0;aspect=fixed;pointerEvents=1;shape=mxgraph.aws4.container_2;" parent="1" vertex="1">
          <mxGeometry x="516.0500000000001" y="505" width="46.45" height="30" as="geometry" />
        </mxCell>
        <mxCell id="WaI7bWhhHGH7RyJGUKFf-89" value="Secret Store CSI Driver" style="text;html=1;align=center;verticalAlign=middle;whiteSpace=wrap;rounded=0;" parent="1" vertex="1">
          <mxGeometry x="488.55000000000007" y="533" width="101" height="35" as="geometry" />
        </mxCell>
        <mxCell id="DPWpI53lilMNmOAEphsO-1" value="" style="sketch=0;outlineConnect=0;fontColor=#232F3E;gradientColor=none;fillColor=#ED7100;strokeColor=none;dashed=0;verticalLabelPosition=bottom;verticalAlign=top;align=center;html=1;fontSize=12;fontStyle=0;aspect=fixed;pointerEvents=1;shape=mxgraph.aws4.container_2;" vertex="1" parent="1">
          <mxGeometry x="439.99000000000007" y="625.5" width="46.45" height="30" as="geometry" />
        </mxCell>
        <mxCell id="DPWpI53lilMNmOAEphsO-2" value="ArgoCD" style="text;html=1;align=center;verticalAlign=middle;whiteSpace=wrap;rounded=0;" vertex="1" parent="1">
          <mxGeometry x="426.7199999999999" y="655.5" width="73" height="24.5" as="geometry" />
        </mxCell>
      </root>
    </mxGraphModel>
  </diagram>
</mxfile>
